<svg version="1.1" id="Layer_1" xmlns="http://www.w3.org/2000/svg" xmlns:xlink="http://www.w3.org/1999/xlink" x="0px" y="0px"
	 width="100%" viewBox="0 0 512 512" enable-background="new 0 0 512 512" xml:space="preserve">
<path fill="#010101" opacity="1.000000" stroke="none" 
	d="
M513.000000,192.000000 
	C513.000000,299.307251 513.000000,406.114502 513.000000,512.960876 
	C342.401062,512.960876 171.802139,512.960876 1.101599,512.960876 
	C1.101599,342.442780 1.101599,171.885468 1.101599,1.164083 
	C171.666534,1.164083 342.333252,1.164083 513.000000,1.164083 
	C513.000000,64.531158 513.000000,128.015579 513.000000,192.000000 
M124.633278,397.472992 
	C124.633278,400.741821 124.633278,404.010620 124.633278,407.384888 
	C144.702606,407.384888 164.116180,407.384888 183.918289,407.384888 
	C183.918289,405.306976 183.918289,403.508026 183.918289,401.709076 
	C183.918289,360.550323 183.914795,319.391571 183.920822,278.232819 
	C183.922287,268.215820 187.074921,265.039948 197.025818,265.038361 
	C239.184387,265.031738 281.342957,265.032776 323.501526,265.037476 
	C333.742004,265.038635 336.931885,268.236389 336.933167,278.505890 
	C336.938293,319.664642 336.935303,360.823425 336.935303,401.982178 
	C336.935303,403.752930 336.935303,405.523651 336.935303,407.393311 
	C355.591827,407.393311 373.671814,407.393311 391.761719,407.393311 
	C391.761719,358.900848 391.761719,310.683197 391.761719,262.182220 
	C387.114319,262.182220 382.806396,262.189026 378.498505,262.180969 
	C364.945190,262.155609 358.386902,255.552017 358.351379,241.880646 
	C358.335144,235.630997 358.348633,229.381271 358.348633,222.875259 
	C347.228760,222.875259 336.751526,222.779709 326.279816,222.976456 
	C324.677002,223.006577 322.882050,224.113342 321.541992,225.181427 
	C283.143402,255.787918 230.836945,255.786652 192.419464,225.145233 
	C191.288132,224.242889 189.931259,223.013901 188.661026,222.991577 
	C178.577271,222.814423 168.489044,222.892929 158.746399,222.892929 
	C158.346588,223.709259 158.215927,223.851913 158.215256,223.995193 
	C158.182999,230.826523 158.235733,237.659119 158.122559,244.488983 
	C157.949097,254.956985 150.971420,261.957184 140.530792,262.158386 
	C135.406021,262.257172 130.277771,262.175476 124.633263,262.175476 
	C124.633263,307.259857 124.633263,351.869476 124.633278,397.472992 
M114.274132,79.300430 
	C115.295197,83.699768 113.810089,87.250725 110.250305,89.776642 
	C104.965202,93.526779 100.222794,91.150879 95.909355,87.825867 
	C91.600342,91.699661 87.472603,95.252457 83.575592,99.042519 
	C82.761848,99.833923 82.121628,101.838539 82.555016,102.711105 
	C85.578056,108.797562 83.325706,113.149506 78.653381,117.157440 
	C67.148323,127.026505 55.732616,137.000488 44.356430,147.017960 
	C43.074921,148.146408 41.529785,149.757156 41.395504,151.259445 
	C41.000637,155.677078 41.254707,160.152725 41.254707,164.745148 
	C79.834770,164.745148 117.890076,164.745148 155.997910,164.745148 
	C144.445114,101.829506 191.814453,45.095188 253.836334,43.247749 
	C282.866150,42.383041 308.213684,52.228294 328.814240,72.730659 
	C354.341125,98.135857 363.265564,129.209747 357.907776,164.712585 
	C394.390137,164.712585 430.603027,164.712585 467.064972,164.712585 
	C467.064972,160.414215 467.298431,156.414307 466.957672,152.463943 
	C466.807373,150.721252 465.924591,148.582123 464.641571,147.463287 
	C420.952728,109.365776 377.191284,71.351357 333.348145,33.431549 
	C331.774170,32.070236 329.270050,31.105856 327.196381,31.100365 
	C278.548248,30.971546 229.899567,30.971344 181.251404,31.101448 
	C179.186554,31.106970 176.719574,32.111023 175.127853,33.461018 
	C163.442047,43.372128 151.951294,53.512783 140.358566,63.534241 
	C133.795990,69.207329 130.663040,69.318474 123.413155,64.240051 
	C119.617516,67.557930 115.784767,70.908249 112.045784,74.176605 
	C112.849358,75.898697 113.473724,77.236732 114.274132,79.300430 
M326.492706,189.962540 
	C343.955200,160.561737 344.781891,130.600372 326.503143,101.763931 
	C308.368683,73.155098 281.216248,60.437016 247.296341,63.907623 
	C199.082260,68.840767 165.012695,116.835876 176.655960,163.840485 
	C185.188416,198.286514 207.481155,220.130600 242.258224,226.474823 
	C277.307648,232.868729 305.525024,219.775482 326.492706,189.962540 
M268.500061,465.235901 
	C190.335373,465.235962 112.170685,465.235382 34.005997,465.236908 
	C25.259413,465.237091 21.019581,468.149475 21.027546,474.134033 
	C21.035463,480.082977 25.304688,483.006073 33.999084,483.006134 
	C182.662018,483.006744 331.324951,483.006744 479.987885,483.006134 
	C488.681885,483.006104 492.957977,480.083679 492.971558,474.141876 
	C492.985199,468.176819 488.709778,465.237091 479.994781,465.236908 
	C409.829865,465.235321 339.664978,465.235962 268.500061,465.235901 
M261.500092,427.678314 
	C189.893784,427.678314 118.287468,427.678314 46.480759,427.678314 
	C46.480759,433.754944 46.480759,439.308350 46.480759,444.837158 
	C187.020279,444.837158 327.230652,444.837158 467.563385,444.837158 
	C467.563385,439.072662 467.563385,433.651215 467.563385,427.678223 
	C399.038147,427.678223 330.769135,427.678223 261.500092,427.678314 
M285.508972,407.678925 
	C295.919647,407.678925 306.330322,407.678925 316.583984,407.678925 
	C316.583984,366.334198 316.583984,325.783508 316.583984,285.400574 
	C301.002594,285.400574 285.779541,285.400574 270.677032,285.400574 
	C270.677032,326.300720 270.677032,366.828674 270.677032,407.678894 
	C275.557922,407.678894 280.036224,407.678894 285.508972,407.678925 
M203.920822,304.500427 
	C203.920822,338.750000 203.920822,372.999603 203.920822,407.424561 
	C219.570923,407.424561 234.651825,407.424561 250.003998,407.424561 
	C250.003998,366.629669 250.003998,326.079865 250.003998,285.316681 
	C234.658768,285.316681 219.444672,285.316681 203.920822,285.316681 
	C203.920822,291.563019 203.920822,297.531830 203.920822,304.500427 
M104.658646,283.500366 
	C104.658646,276.548553 104.658646,269.596741 104.658646,262.557648 
	C96.898582,262.557648 89.707863,262.557648 82.514236,262.557648 
	C82.514236,311.023132 82.514236,359.089996 82.514236,407.287384 
	C89.986282,407.287384 97.177353,407.287384 104.658592,407.287384 
	C104.658592,366.085419 104.658592,325.292847 104.658646,283.500366 
M434.347351,379.500183 
	C434.347351,340.488403 434.347351,301.476624 434.347351,262.544250 
	C426.463745,262.544250 419.406403,262.544250 412.487488,262.544250 
	C412.487488,311.065948 412.487488,359.219147 412.487488,407.290894 
	C419.927704,407.290894 426.976379,407.290894 434.347443,407.290894 
	C434.347443,398.106384 434.347443,389.303284 434.347351,379.500183 
M347.044952,194.514664 
	C345.613770,197.062347 344.182556,199.610031 342.489929,202.623123 
	C391.157379,202.623123 439.163910,202.623123 487.359436,202.623123 
	C487.359436,196.667587 487.359436,190.963303 487.359436,185.028824 
	C485.165802,185.028824 483.341675,185.028839 481.517517,185.028839 
	C441.712036,185.028839 401.904633,185.230377 362.102783,184.849533 
	C354.629669,184.778015 349.250763,185.834045 347.044952,194.514664 
M168.816864,197.805695 
	C167.398178,195.174500 165.633514,192.666199 164.644531,189.882339 
	C163.273254,186.022263 161.031006,184.906738 156.931854,184.923996 
	C115.994698,185.096329 75.056534,185.028625 34.118649,185.028625 
	C32.346767,185.028625 30.574888,185.028610 28.792015,185.028610 
	C28.792015,191.290497 28.792015,196.981384 28.792015,202.652802 
	C76.417648,202.652802 123.606133,202.652802 171.412003,202.652802 
	C170.503098,200.982422 169.828064,199.741821 168.816864,197.805695 
M381.762878,222.875702 
	C380.636505,223.481155 378.561768,224.044067 378.532410,224.698715 
	C378.275421,230.428558 378.383789,236.174759 378.383789,241.843460 
	C408.671967,241.843460 438.208191,241.843460 467.753418,241.843460 
	C467.753418,235.419510 467.753418,229.334137 467.753418,222.875214 
	C439.237732,222.875214 410.974487,222.875214 381.762878,222.875702 
M83.500023,222.878036 
	C72.051361,222.878036 60.602695,222.878036 49.070709,222.878036 
	C49.070709,229.559143 49.070709,235.747452 49.070709,241.933105 
	C78.862785,241.933105 108.275124,241.933105 137.781525,241.933105 
	C137.781525,235.484848 137.781525,229.284561 137.781525,222.878021 
	C119.782707,222.878021 102.141373,222.878021 83.500023,222.878036 
z"/>
<path fill="#EEF2F2" opacity="1.000000" stroke="none" 
	d="
M124.633270,396.976074 
	C124.633263,351.869476 124.633263,307.259857 124.633263,262.175476 
	C130.277771,262.175476 135.406021,262.257172 140.530792,262.158386 
	C150.971420,261.957184 157.949097,254.956985 158.122559,244.488983 
	C158.235733,237.659119 158.182999,230.826523 158.215256,223.995193 
	C158.215927,223.851913 158.346588,223.709259 158.746399,222.892929 
	C168.489044,222.892929 178.577271,222.814423 188.661026,222.991577 
	C189.931259,223.013901 191.288132,224.242889 192.419464,225.145233 
	C230.836945,255.786652 283.143402,255.787918 321.541992,225.181427 
	C322.882050,224.113342 324.677002,223.006577 326.279816,222.976456 
	C336.751526,222.779709 347.228760,222.875259 358.348633,222.875259 
	C358.348633,229.381271 358.335144,235.630997 358.351379,241.880646 
	C358.386902,255.552017 364.945190,262.155609 378.498505,262.180969 
	C382.806396,262.189026 387.114319,262.182220 391.761719,262.182220 
	C391.761719,310.683197 391.761719,358.900848 391.761719,407.393311 
	C373.671814,407.393311 355.591827,407.393311 336.935303,407.393311 
	C336.935303,405.523651 336.935303,403.752930 336.935303,401.982178 
	C336.935303,360.823425 336.938293,319.664642 336.933167,278.505890 
	C336.931885,268.236389 333.742004,265.038635 323.501526,265.037476 
	C281.342957,265.032776 239.184387,265.031738 197.025818,265.038361 
	C187.074921,265.039948 183.922287,268.215820 183.920822,278.232819 
	C183.914795,319.391571 183.918289,360.550323 183.918289,401.709076 
	C183.918289,403.508026 183.918289,405.306976 183.918289,407.384888 
	C164.116180,407.384888 144.702606,407.384888 124.633278,407.384888 
	C124.633278,404.010620 124.633278,400.741821 124.633270,396.976074 
z"/>
<path fill="#60A3FE" opacity="1.000000" stroke="none" 
	d="
M114.186111,78.937599 
	C113.473724,77.236732 112.849358,75.898697 112.045784,74.176605 
	C115.784767,70.908249 119.617516,67.557930 123.413155,64.240051 
	C130.663040,69.318474 133.795990,69.207329 140.358566,63.534241 
	C151.951294,53.512783 163.442047,43.372128 175.127853,33.461018 
	C176.719574,32.111023 179.186554,31.106970 181.251404,31.101448 
	C229.899567,30.971344 278.548248,30.971546 327.196381,31.100365 
	C329.270050,31.105856 331.774170,32.070236 333.348145,33.431549 
	C377.191284,71.351357 420.952728,109.365776 464.641571,147.463287 
	C465.924591,148.582123 466.807373,150.721252 466.957672,152.463943 
	C467.298431,156.414307 467.064972,160.414215 467.064972,164.712585 
	C430.603027,164.712585 394.390137,164.712585 357.907776,164.712585 
	C363.265564,129.209747 354.341125,98.135857 328.814240,72.730659 
	C308.213684,52.228294 282.866150,42.383041 253.836334,43.247749 
	C191.814453,45.095188 144.445114,101.829506 155.997910,164.745148 
	C117.890076,164.745148 79.834770,164.745148 41.254707,164.745148 
	C41.254707,160.152725 41.000637,155.677078 41.395504,151.259445 
	C41.529785,149.757156 43.074921,148.146408 44.356430,147.017960 
	C55.732616,137.000488 67.148323,127.026505 78.653381,117.157440 
	C83.325706,113.149506 85.578056,108.797562 82.555016,102.711105 
	C82.121628,101.838539 82.761848,99.833923 83.575592,99.042519 
	C87.472603,95.252457 91.600342,91.699661 95.909355,87.825867 
	C100.222794,91.150879 104.965202,93.526779 110.250305,89.776642 
	C113.810089,87.250725 115.295197,83.699768 114.186111,78.937599 
z"/>
<path fill="#FDC059" opacity="1.000000" stroke="none" 
	d="
M326.290771,190.264359 
	C305.525024,219.775482 277.307648,232.868729 242.258224,226.474823 
	C207.481155,220.130600 185.188416,198.286514 176.655960,163.840485 
	C165.012695,116.835876 199.082260,68.840767 247.296341,63.907623 
	C281.216248,60.437016 308.368683,73.155098 326.503143,101.763931 
	C344.781891,130.600372 343.955200,160.561737 326.290771,190.264359 
M256.621033,117.820374 
	C261.244476,119.388634 266.139557,120.433113 270.424164,122.654800 
	C276.060577,125.577454 281.459503,124.632256 283.842468,119.246864 
	C285.757874,114.918106 284.960022,110.648460 281.429230,107.902267 
	C276.817780,104.315552 271.523315,101.606941 265.880859,98.124382 
	C265.753540,95.235962 265.902130,91.220161 265.321228,87.312828 
	C264.607483,82.511681 260.788605,79.728813 256.138397,79.946770 
	C251.564316,80.161163 248.247223,83.403885 247.776764,88.241127 
	C247.616104,89.892937 247.479324,91.594040 247.691208,93.225929 
	C248.230301,97.378304 247.064011,99.573273 242.587357,101.066971 
	C232.138870,104.553223 225.787369,114.612007 225.905365,125.805672 
	C226.030334,137.658676 231.527954,145.705338 242.693863,149.707748 
	C248.937286,151.945679 255.380676,153.620316 261.701080,155.651093 
	C265.078979,156.736435 267.741272,158.470398 267.277954,162.737274 
	C266.817780,166.975250 264.462219,169.333099 260.412048,170.152756 
	C252.998108,171.653152 246.731796,170.122269 241.645340,163.988312 
	C237.704025,159.235367 233.179688,158.788727 228.932037,161.897369 
	C224.591476,165.074005 223.174591,171.038727 226.665390,175.602036 
	C229.621521,179.466400 233.201401,183.829376 237.472229,185.500488 
	C245.330307,188.575211 248.804932,192.647568 247.649460,201.411469 
	C246.953461,206.690582 251.394989,210.245621 256.339447,210.297379 
	C261.477142,210.351151 265.210907,206.800156 265.647461,201.210571 
	C265.854309,198.561951 265.838928,195.877747 265.681061,193.224121 
	C265.531067,190.703262 266.473694,189.729950 268.882812,188.593765 
	C273.470917,186.429932 278.247192,183.951279 281.807129,180.447052 
	C295.697021,166.774582 290.214844,143.423996 271.867889,137.389786 
	C266.206177,135.527664 260.242950,134.602097 254.502106,132.953964 
	C250.490677,131.802322 246.826859,129.737350 247.371017,124.731262 
	C247.888290,119.972626 251.253799,118.068390 256.621033,117.820374 
z"/>
<path fill="#A7BCBD" opacity="1.000000" stroke="none" 
	d="
M269.000061,465.235931 
	C339.664978,465.235962 409.829865,465.235321 479.994781,465.236908 
	C488.709778,465.237091 492.985199,468.176819 492.971558,474.141876 
	C492.957977,480.083679 488.681885,483.006104 479.987885,483.006134 
	C331.324951,483.006744 182.662018,483.006744 33.999084,483.006134 
	C25.304688,483.006073 21.035463,480.082977 21.027546,474.134033 
	C21.019581,468.149475 25.259413,465.237091 34.005997,465.236908 
	C112.170685,465.235382 190.335373,465.235962 269.000061,465.235931 
z"/>
<path fill="#60A4FF" opacity="1.000000" stroke="none" 
	d="
M262.000122,427.678284 
	C330.769135,427.678223 399.038147,427.678223 467.563385,427.678223 
	C467.563385,433.651215 467.563385,439.072662 467.563385,444.837158 
	C327.230652,444.837158 187.020279,444.837158 46.480759,444.837158 
	C46.480759,439.308350 46.480759,433.754944 46.480759,427.678314 
	C118.287468,427.678314 189.893784,427.678314 262.000122,427.678284 
z"/>
<path fill="#99C3FB" opacity="1.000000" stroke="none" 
	d="
M285.011780,407.678894 
	C280.036224,407.678894 275.557922,407.678894 270.677032,407.678894 
	C270.677032,366.828674 270.677032,326.300720 270.677032,285.400574 
	C285.779541,285.400574 301.002594,285.400574 316.583984,285.400574 
	C316.583984,325.783508 316.583984,366.334198 316.583984,407.678925 
	C306.330322,407.678925 295.919647,407.678925 285.011780,407.678894 
M299.750854,350.305176 
	C305.916016,344.968689 303.041138,334.348755 294.671875,333.048920 
	C289.888916,332.306122 286.166626,334.195465 284.039886,338.603729 
	C282.009766,342.811829 282.841614,346.728851 286.038208,350.039886 
	C289.552643,353.680084 293.674683,353.852905 299.750854,350.305176 
z"/>
<path fill="#9AC5FE" opacity="1.000000" stroke="none" 
	d="
M203.920822,304.000549 
	C203.920822,297.531830 203.920822,291.563019 203.920822,285.316681 
	C219.444672,285.316681 234.658768,285.316681 250.003998,285.316681 
	C250.003998,326.079865 250.003998,366.629669 250.003998,407.424561 
	C234.651825,407.424561 219.570923,407.424561 203.920822,407.424561 
	C203.920822,372.999603 203.920822,338.750000 203.920822,304.000549 
M217.848999,342.584534 
	C218.574554,350.136841 224.146790,354.529449 230.510056,352.565308 
	C235.145370,351.134552 238.244934,346.544952 237.709229,341.905487 
	C237.146194,337.029633 233.311356,333.278046 228.547379,332.942535 
	C223.023453,332.553558 219.419724,335.538940 217.848999,342.584534 
z"/>
<path fill="#F5D098" opacity="1.000000" stroke="none" 
	d="
M104.658615,284.000305 
	C104.658592,325.292847 104.658592,366.085419 104.658592,407.287384 
	C97.177353,407.287384 89.986282,407.287384 82.514236,407.287384 
	C82.514236,359.089996 82.514236,311.023132 82.514236,262.557648 
	C89.707863,262.557648 96.898582,262.557648 104.658646,262.557648 
	C104.658646,269.596741 104.658646,276.548553 104.658615,284.000305 
z"/>
<path fill="#FCD59C" opacity="1.000000" stroke="none" 
	d="
M434.347412,380.000183 
	C434.347443,389.303284 434.347443,398.106384 434.347443,407.290894 
	C426.976379,407.290894 419.927704,407.290894 412.487488,407.290894 
	C412.487488,359.219147 412.487488,311.065948 412.487488,262.544250 
	C419.406403,262.544250 426.463745,262.544250 434.347351,262.544250 
	C434.347351,301.476624 434.347351,340.488403 434.347412,380.000183 
z"/>
<path fill="#A7BCBD" opacity="1.000000" stroke="none" 
	d="
M347.219360,194.183151 
	C349.250763,185.834045 354.629669,184.778015 362.102783,184.849533 
	C401.904633,185.230377 441.712036,185.028839 481.517517,185.028839 
	C483.341675,185.028839 485.165802,185.028824 487.359436,185.028824 
	C487.359436,190.963303 487.359436,196.667587 487.359436,202.623123 
	C439.163910,202.623123 391.157379,202.623123 342.489929,202.623123 
	C344.182556,199.610031 345.613770,197.062347 347.219360,194.183151 
z"/>
<path fill="#A7BCBD" opacity="1.000000" stroke="none" 
	d="
M168.984940,198.153458 
	C169.828064,199.741821 170.503098,200.982422 171.412003,202.652802 
	C123.606133,202.652802 76.417648,202.652802 28.792015,202.652802 
	C28.792015,196.981384 28.792015,191.290497 28.792015,185.028610 
	C30.574888,185.028610 32.346767,185.028625 34.118649,185.028625 
	C75.056534,185.028625 115.994698,185.096329 156.931854,184.923996 
	C161.031006,184.906738 163.273254,186.022263 164.644531,189.882339 
	C165.633514,192.666199 167.398178,195.174500 168.984940,198.153458 
z"/>
<path fill="#FEC05A" opacity="1.000000" stroke="none" 
	d="
M382.237061,222.875458 
	C410.974487,222.875214 439.237732,222.875214 467.753418,222.875214 
	C467.753418,229.334137 467.753418,235.419510 467.753418,241.843460 
	C438.208191,241.843460 408.671967,241.843460 378.383789,241.843460 
	C378.383789,236.174759 378.275421,230.428558 378.532410,224.698715 
	C378.561768,224.044067 380.636505,223.481155 382.237061,222.875458 
z"/>
<path fill="#FFC15A" opacity="1.000000" stroke="none" 
	d="
M84.000031,222.878021 
	C102.141373,222.878021 119.782707,222.878021 137.781525,222.878021 
	C137.781525,229.284561 137.781525,235.484848 137.781525,241.933105 
	C108.275124,241.933105 78.862785,241.933105 49.070709,241.933105 
	C49.070709,235.747452 49.070709,229.559143 49.070709,222.878036 
	C60.602695,222.878036 72.051361,222.878036 84.000031,222.878021 
z"/>
<path fill="#040301" opacity="1.000000" stroke="none" 
	d="
M256.189514,117.835999 
	C251.253799,118.068390 247.888290,119.972626 247.371017,124.731262 
	C246.826859,129.737350 250.490677,131.802322 254.502106,132.953964 
	C260.242950,134.602097 266.206177,135.527664 271.867889,137.389786 
	C290.214844,143.423996 295.697021,166.774582 281.807129,180.447052 
	C278.247192,183.951279 273.470917,186.429932 268.882812,188.593765 
	C266.473694,189.729950 265.531067,190.703262 265.681061,193.224121 
	C265.838928,195.877747 265.854309,198.561951 265.647461,201.210571 
	C265.210907,206.800156 261.477142,210.351151 256.339447,210.297379 
	C251.394989,210.245621 246.953461,206.690582 247.649460,201.411469 
	C248.804932,192.647568 245.330307,188.575211 237.472229,185.500488 
	C233.201401,183.829376 229.621521,179.466400 226.665390,175.602036 
	C223.174591,171.038727 224.591476,165.074005 228.932037,161.897369 
	C233.179688,158.788727 237.704025,159.235367 241.645340,163.988312 
	C246.731796,170.122269 252.998108,171.653152 260.412048,170.152756 
	C264.462219,169.333099 266.817780,166.975250 267.277954,162.737274 
	C267.741272,158.470398 265.078979,156.736435 261.701080,155.651093 
	C255.380676,153.620316 248.937286,151.945679 242.693863,149.707748 
	C231.527954,145.705338 226.030334,137.658676 225.905365,125.805672 
	C225.787369,114.612007 232.138870,104.553223 242.587357,101.066971 
	C247.064011,99.573273 248.230301,97.378304 247.691208,93.225929 
	C247.479324,91.594040 247.616104,89.892937 247.776764,88.241127 
	C248.247223,83.403885 251.564316,80.161163 256.138397,79.946770 
	C260.788605,79.728813 264.607483,82.511681 265.321228,87.312828 
	C265.902130,91.220161 265.753540,95.235962 265.880859,98.124382 
	C271.523315,101.606941 276.817780,104.315552 281.429230,107.902267 
	C284.960022,110.648460 285.757874,114.918106 283.842468,119.246864 
	C281.459503,124.632256 276.060577,125.577454 270.424164,122.654800 
	C266.139557,120.433113 261.244476,119.388634 256.189514,117.835999 
z"/>
<path fill="#050607" opacity="1.000000" stroke="none" 
	d="
M299.461761,350.559326 
	C293.674683,353.852905 289.552643,353.680084 286.038208,350.039886 
	C282.841614,346.728851 282.009766,342.811829 284.039886,338.603729 
	C286.166626,334.195465 289.888916,332.306122 294.671875,333.048920 
	C303.041138,334.348755 305.916016,344.968689 299.461761,350.559326 
z"/>
<path fill="#040506" opacity="1.000000" stroke="none" 
	d="
M217.872177,342.175659 
	C219.419724,335.538940 223.023453,332.553558 228.547379,332.942535 
	C233.311356,333.278046 237.146194,337.029633 237.709229,341.905487 
	C238.244934,346.544952 235.145370,351.134552 230.510056,352.565308 
	C224.146790,354.529449 218.574554,350.136841 217.872177,342.175659 
z"/>
</svg>