<?xml version="1.0" standalone="no"?>
<!DOCTYPE svg PUBLIC "-//W3C//DTD SVG 20010904//EN"
 "http://www.w3.org/TR/2001/REC-SVG-20010904/DTD/svg10.dtd">
<svg version="1.0" xmlns="http://www.w3.org/2000/svg"
 width="64.000000pt" height="64.000000pt" viewBox="0 0 64.000000 64.000000"
 preserveAspectRatio="xMidYMid meet">

<g transform="translate(0.000000,64.000000) scale(0.100000,-0.100000)"
fill="#000000" stroke="none">
<path d="M235 521 c-74 -34 -101 -84 -107 -202 -3 -62 8 -81 92 -168 l45 -46
3 33 c2 23 -4 41 -22 63 -14 17 -26 36 -26 44 0 7 -7 15 -15 19 -25 9 -18 36
9 36 13 0 26 6 29 14 3 7 25 16 49 20 23 4 53 14 66 22 22 14 23 13 37 -21 15
-34 17 -35 67 -35 l51 0 -6 58 c-7 86 -26 114 -99 151 -72 35 -116 39 -173 12z
m140 -67 c60 -32 65 -39 64 -84 l0 -35 -15 27 c-22 41 -51 54 -75 32 -10 -9
-42 -19 -70 -22 -30 -3 -53 -10 -56 -18 -10 -27 -23 -13 -23 24 1 47 18 70 67
87 51 19 51 19 108 -11z"/>
<path d="M310 260 c-16 -16 -20 -33 -20 -84 0 -93 5 -96 150 -96 145 0 150 3
150 96 0 96 -11 104 -150 104 -97 0 -112 -2 -130 -20z m220 -85 l0 -45 -90 0
-90 0 0 45 0 45 90 0 90 0 0 -45z"/>
<path d="M417 204 c-12 -12 -8 -41 8 -54 20 -17 47 5 43 34 -3 21 -37 34 -51
20z"/>
</g>
</svg>
