<svg xmlns="http://www.w3.org/2000/svg" xmlns:xlink="http://www.w3.org/1999/xlink" width="500" zoomAndPan="magnify" viewBox="0 0 375 374.999991" height="500" preserveAspectRatio="xMidYMid meet" version="1.0"><defs><g/><clipPath id="fce1e5cb94"><path d="M 131.683594 107.933594 L 243 107.933594 L 243 175 L 131.683594 175 Z M 131.683594 107.933594 " clip-rule="nonzero"/></clipPath></defs><g clip-path="url(#fce1e5cb94)"><path fill="#1649ff" d="M 242.242188 107.992188 L 218.023438 110.074219 C 217.480469 110.121094 217.242188 110.792969 217.640625 111.171875 L 223.75 116.929688 L 222.394531 118.316406 L 221.488281 119.242188 L 216.898438 124.007812 C 215.128906 125.875 213.363281 127.742188 211.609375 129.617188 C 210.351562 130.96875 209.097656 132.320312 207.859375 133.683594 C 204.878906 136.941406 201.933594 140.230469 199.039062 143.570312 C 197.597656 145.246094 196.160156 146.925781 194.742188 148.621094 C 194.363281 149.074219 193.992188 149.53125 193.621094 149.980469 L 192.105469 149.128906 L 168.464844 135.84375 L 164.691406 133.722656 L 161.988281 136.667969 L 158.605469 140.355469 L 131.96875 169.367188 L 137.5625 174.820312 L 166.382812 147.011719 L 166.386719 147.011719 L 183.253906 157.984375 L 191.882812 163.597656 L 195.007812 165.632812 L 195.726562 166.097656 L 199.796875 162.53125 C 201.464844 161.070312 203.105469 159.585938 204.71875 158.074219 C 206.339844 156.566406 207.9375 155.042969 209.527344 153.507812 C 212.707031 150.4375 215.832031 147.316406 218.925781 144.171875 C 222.023438 141.027344 225.0625 137.832031 228.097656 134.625 L 232.609375 129.777344 L 233.21875 129.109375 L 234.816406 127.367188 L 240.652344 132.871094 C 241.042969 133.242188 241.695312 132.980469 241.722656 132.4375 L 242.929688 108.65625 C 242.949219 108.273438 242.628906 107.957031 242.242188 107.992188 " fill-opacity="1" fill-rule="nonzero"/></g><path fill="#242424" d="M 137.683594 206.757812 C 137.683594 207.894531 138.609375 208.839844 139.765625 208.839844 L 154.199219 208.839844 C 155.332031 208.839844 156.277344 207.917969 156.277344 206.757812 L 156.277344 164.652344 L 137.683594 182.59375 L 137.683594 206.757812 " fill-opacity="1" fill-rule="nonzero"/><path fill="#242424" d="M 163.472656 157.710938 L 163.472656 206.757812 C 163.472656 207.894531 164.390625 208.839844 165.554688 208.839844 L 179.984375 208.839844 C 181.117188 208.839844 182.0625 207.917969 182.0625 206.757812 L 182.0625 163.984375 L 167.074219 154.230469 L 163.472656 157.710938 " fill-opacity="1" fill-rule="nonzero"/><path fill="#242424" d="M 196.238281 173.195312 L 189.253906 168.660156 L 189.253906 206.757812 C 189.253906 207.894531 190.175781 208.839844 191.339844 208.839844 L 205.769531 208.839844 C 206.90625 208.839844 207.851562 207.917969 207.851562 206.757812 L 207.851562 162.914062 C 206.464844 164.199219 205.015625 165.507812 203.539062 166.800781 L 196.238281 173.195312 " fill-opacity="1" fill-rule="nonzero"/><path fill="#242424" d="M 222.96875 148.160156 C 220.113281 151.066406 217.496094 153.671875 215.039062 156.066406 L 215.039062 206.757812 C 215.039062 207.894531 215.964844 208.839844 217.125 208.839844 L 231.554688 208.839844 C 232.691406 208.839844 233.636719 207.917969 233.636719 206.757812 L 233.636719 137.003906 L 232.222656 138.527344 C 229.289062 141.621094 226.164062 144.917969 222.96875 148.160156 " fill-opacity="1" fill-rule="nonzero"/><g fill="#000000" fill-opacity="1"><g transform="translate(56.809242, 247.577372)"><g><path d="M 2.296875 -23.640625 L 19.078125 -23.640625 L 19.078125 -18.328125 L 9.390625 -18.328125 L 9.390625 -13.796875 L 17.6875 -13.796875 L 17.6875 -8.4375 L 9.390625 -8.4375 L 9.390625 0 L 2.296875 0 Z M 2.296875 -23.640625 "/></g></g></g><g fill="#000000" fill-opacity="1"><g transform="translate(76.696135, 247.577372)"><g><path d="M 2.296875 -23.640625 L 9.4375 -23.640625 L 9.4375 0 L 2.296875 0 Z M 2.296875 -23.640625 "/></g></g></g><g fill="#000000" fill-opacity="1"><g transform="translate(87.649851, 247.577372)"><g><path d="M 23.40625 -23.640625 L 23.40625 0 L 18.4375 0 L 8.75 -12.09375 L 8.75 0 L 2.296875 0 L 2.296875 -23.640625 L 8.046875 -23.640625 L 16.953125 -12.015625 L 16.953125 -23.640625 Z M 23.40625 -23.640625 "/></g></g></g><g fill="#000000" fill-opacity="1"><g transform="translate(112.570518, 247.577372)"><g><path d="M 16.3125 -4.140625 L 8.1875 -4.140625 L 6.90625 0 L 0.359375 0 L 9.078125 -23.640625 L 16.953125 -23.640625 L 24.890625 0 L 17.625 0 Z M 14.71875 -9.109375 L 12.203125 -16.953125 L 9.75 -9.109375 Z M 14.71875 -9.109375 "/></g></g></g><g fill="#000000" fill-opacity="1"><g transform="translate(137.030351, 247.577372)"><g><path d="M 23.40625 -23.640625 L 23.40625 0 L 18.4375 0 L 8.75 -12.09375 L 8.75 0 L 2.296875 0 L 2.296875 -23.640625 L 8.046875 -23.640625 L 16.953125 -12.015625 L 16.953125 -23.640625 Z M 23.40625 -23.640625 "/></g></g></g><g fill="#000000" fill-opacity="1"><g transform="translate(161.951015, 247.577372)"><g><path d="M 13.015625 0.53125 C 9.085938 0.53125 6.113281 -0.472656 4.09375 -2.484375 C 2.070312 -4.492188 1.0625 -7.601562 1.0625 -11.8125 C 1.0625 -15.945312 2.039062 -19.050781 4 -21.125 C 5.96875 -23.207031 8.972656 -24.25 13.015625 -24.25 C 15.421875 -24.25 17.972656 -23.671875 20.671875 -22.515625 L 20.671875 -16.453125 C 18.304688 -18.109375 16.082031 -18.9375 14 -18.9375 C 12.1875 -18.9375 10.800781 -18.398438 9.84375 -17.328125 C 8.882812 -16.265625 8.40625 -14.410156 8.40625 -11.765625 C 8.40625 -9.171875 8.894531 -7.359375 9.875 -6.328125 C 10.851562 -5.296875 12.347656 -4.78125 14.359375 -4.78125 C 15.160156 -4.78125 16.101562 -4.972656 17.1875 -5.359375 C 18.28125 -5.753906 19.441406 -6.367188 20.671875 -7.203125 L 20.671875 -1.140625 C 19.773438 -0.640625 18.59375 -0.238281 17.125 0.0625 C 15.65625 0.375 14.285156 0.53125 13.015625 0.53125 Z M 13.015625 0.53125 "/></g></g></g><g fill="#000000" fill-opacity="1"><g transform="translate(183.610365, 247.577372)"><g><path d="M 2.296875 -23.640625 L 19.078125 -23.640625 L 19.078125 -18.328125 L 9.4375 -18.328125 L 9.4375 -14.5 L 17.6875 -14.5 L 17.6875 -9.1875 L 9.390625 -9.1875 L 9.390625 -5.3125 L 19.078125 -5.3125 L 19.078125 0 L 2.296875 0 Z M 2.296875 -23.640625 "/></g></g></g><g fill="#000000" fill-opacity="1"><g transform="translate(204.028992, 247.577372)"><g/></g></g><g fill="#000000" fill-opacity="1"><g transform="translate(212.820297, 247.577372)"><g><path d="M 10.78125 0.53125 C 8.863281 0.53125 7.195312 0.421875 5.78125 0.203125 C 4.363281 -0.00390625 3.097656 -0.378906 1.984375 -0.921875 L 1.984375 -7.515625 C 3.140625 -6.617188 4.414062 -5.9375 5.8125 -5.46875 C 7.207031 -5.007812 8.484375 -4.78125 9.640625 -4.78125 C 10.472656 -4.78125 11.113281 -4.914062 11.5625 -5.1875 C 12.007812 -5.46875 12.234375 -5.945312 12.234375 -6.625 C 12.234375 -7.125 11.9375 -7.519531 11.34375 -7.8125 C 10.75 -8.113281 9.753906 -8.488281 8.359375 -8.9375 C 7.796875 -9.070312 7.101562 -9.285156 6.28125 -9.578125 C 4.738281 -10.097656 3.507812 -10.851562 2.59375 -11.84375 C 1.6875 -12.832031 1.234375 -14.25 1.234375 -16.09375 C 1.234375 -17.632812 1.601562 -19.019531 2.34375 -20.25 C 3.09375 -21.476562 4.210938 -22.453125 5.703125 -23.171875 C 7.191406 -23.890625 9.015625 -24.25 11.171875 -24.25 C 12.609375 -24.25 13.875 -24.128906 14.96875 -23.890625 C 16.070312 -23.660156 17.171875 -23.269531 18.265625 -22.71875 L 18.265625 -15.984375 C 17.359375 -16.785156 16.238281 -17.484375 14.90625 -18.078125 C 13.570312 -18.671875 12.382812 -18.96875 11.34375 -18.96875 C 10.519531 -18.96875 9.84375 -18.804688 9.3125 -18.484375 C 8.78125 -18.171875 8.515625 -17.671875 8.515625 -16.984375 C 8.515625 -16.347656 8.796875 -15.875 9.359375 -15.5625 C 9.921875 -15.257812 10.867188 -14.914062 12.203125 -14.53125 C 12.316406 -14.507812 12.550781 -14.453125 12.90625 -14.359375 C 15.144531 -13.722656 16.804688 -12.910156 17.890625 -11.921875 C 18.984375 -10.941406 19.53125 -9.472656 19.53125 -7.515625 C 19.53125 -5.929688 19.164062 -4.53125 18.4375 -3.3125 C 17.707031 -2.09375 16.671875 -1.144531 15.328125 -0.46875 C 13.992188 0.195312 12.476562 0.53125 10.78125 0.53125 Z M 10.78125 0.53125 "/></g></g></g><g fill="#000000" fill-opacity="1"><g transform="translate(232.813536, 247.577372)"><g><path d="M 6.8125 -18.328125 L 0.890625 -18.328125 L 0.890625 -23.640625 L 19.953125 -23.640625 L 19.953125 -18.328125 L 13.890625 -18.328125 L 13.890625 0 L 6.8125 0 Z M 6.8125 -18.328125 "/></g></g></g><g fill="#000000" fill-opacity="1"><g transform="translate(252.877672, 247.577372)"><g><path d="M 16.3125 -4.140625 L 8.1875 -4.140625 L 6.90625 0 L 0.359375 0 L 9.078125 -23.640625 L 16.953125 -23.640625 L 24.890625 0 L 17.625 0 Z M 14.71875 -9.109375 L 12.203125 -16.953125 L 9.75 -9.109375 Z M 14.71875 -9.109375 "/></g></g></g><g fill="#000000" fill-opacity="1"><g transform="translate(277.337517, 247.577372)"><g><path d="M 6.8125 -18.328125 L 0.890625 -18.328125 L 0.890625 -23.640625 L 19.953125 -23.640625 L 19.953125 -18.328125 L 13.890625 -18.328125 L 13.890625 0 L 6.8125 0 Z M 6.8125 -18.328125 "/></g></g></g><g fill="#000000" fill-opacity="1"><g transform="translate(297.401663, 247.577372)"><g><path d="M 10.78125 0.53125 C 8.863281 0.53125 7.195312 0.421875 5.78125 0.203125 C 4.363281 -0.00390625 3.097656 -0.378906 1.984375 -0.921875 L 1.984375 -7.515625 C 3.140625 -6.617188 4.414062 -5.9375 5.8125 -5.46875 C 7.207031 -5.007812 8.484375 -4.78125 9.640625 -4.78125 C 10.472656 -4.78125 11.113281 -4.914062 11.5625 -5.1875 C 12.007812 -5.46875 12.234375 -5.945312 12.234375 -6.625 C 12.234375 -7.125 11.9375 -7.519531 11.34375 -7.8125 C 10.75 -8.113281 9.753906 -8.488281 8.359375 -8.9375 C 7.796875 -9.070312 7.101562 -9.285156 6.28125 -9.578125 C 4.738281 -10.097656 3.507812 -10.851562 2.59375 -11.84375 C 1.6875 -12.832031 1.234375 -14.25 1.234375 -16.09375 C 1.234375 -17.632812 1.601562 -19.019531 2.34375 -20.25 C 3.09375 -21.476562 4.210938 -22.453125 5.703125 -23.171875 C 7.191406 -23.890625 9.015625 -24.25 11.171875 -24.25 C 12.609375 -24.25 13.875 -24.128906 14.96875 -23.890625 C 16.070312 -23.660156 17.171875 -23.269531 18.265625 -22.71875 L 18.265625 -15.984375 C 17.359375 -16.785156 16.238281 -17.484375 14.90625 -18.078125 C 13.570312 -18.671875 12.382812 -18.96875 11.34375 -18.96875 C 10.519531 -18.96875 9.84375 -18.804688 9.3125 -18.484375 C 8.78125 -18.171875 8.515625 -17.671875 8.515625 -16.984375 C 8.515625 -16.347656 8.796875 -15.875 9.359375 -15.5625 C 9.921875 -15.257812 10.867188 -14.914062 12.203125 -14.53125 C 12.316406 -14.507812 12.550781 -14.453125 12.90625 -14.359375 C 15.144531 -13.722656 16.804688 -12.910156 17.890625 -11.921875 C 18.984375 -10.941406 19.53125 -9.472656 19.53125 -7.515625 C 19.53125 -5.929688 19.164062 -4.53125 18.4375 -3.3125 C 17.707031 -2.09375 16.671875 -1.144531 15.328125 -0.46875 C 13.992188 0.195312 12.476562 0.53125 10.78125 0.53125 Z M 10.78125 0.53125 "/></g></g></g><g fill="#000000" fill-opacity="1"><g transform="translate(96.922505, 265.278352)"><g><path d="M 6.71875 -8.1875 C 6.4375 -8.351562 6.078125 -8.476562 5.640625 -8.5625 C 5.210938 -8.65625 4.847656 -8.703125 4.546875 -8.703125 C 3.734375 -8.703125 3.019531 -8.503906 2.40625 -8.109375 C 1.789062 -7.722656 1.316406 -7.1875 0.984375 -6.5 C 0.660156 -5.820312 0.5 -5.054688 0.5 -4.203125 C 0.5 -3.390625 0.648438 -2.648438 0.953125 -1.984375 C 1.265625 -1.316406 1.71875 -0.789062 2.3125 -0.40625 C 2.90625 -0.0195312 3.625 0.171875 4.46875 0.171875 C 4.832031 0.171875 5.234375 0.125 5.671875 0.03125 C 6.117188 -0.0625 6.476562 -0.179688 6.75 -0.328125 L 6.296875 -1.234375 C 5.742188 -0.984375 5.117188 -0.859375 4.421875 -0.859375 C 3.878906 -0.859375 3.40625 -1.003906 3 -1.296875 C 2.59375 -1.597656 2.28125 -2.003906 2.0625 -2.515625 C 1.851562 -3.035156 1.75 -3.601562 1.75 -4.21875 C 1.75 -4.882812 1.867188 -5.476562 2.109375 -6 C 2.359375 -6.53125 2.691406 -6.941406 3.109375 -7.234375 C 3.535156 -7.523438 4.007812 -7.671875 4.53125 -7.671875 C 4.894531 -7.671875 5.191406 -7.644531 5.421875 -7.59375 C 5.660156 -7.539062 5.96875 -7.445312 6.34375 -7.3125 Z M 6.71875 -8.1875 "/></g></g></g><g fill="#000000" fill-opacity="1"><g transform="translate(105.492511, 265.278352)"><g><path d="M 1.953125 -4.015625 C 2.273438 -4.316406 2.632812 -4.570312 3.03125 -4.78125 C 3.4375 -5 3.796875 -5.109375 4.109375 -5.109375 L 3.84375 -6.078125 C 3.550781 -6.078125 3.210938 -5.972656 2.828125 -5.765625 C 2.441406 -5.554688 2.101562 -5.332031 1.8125 -5.09375 L 1.421875 -6.078125 L 0.75 -6.078125 L 0.75 0 L 1.953125 0 Z M 1.953125 -4.015625 "/></g></g></g><g fill="#000000" fill-opacity="1"><g transform="translate(111.293974, 265.278352)"><g><path d="M 1.296875 -4.75 C 1.910156 -5.019531 2.492188 -5.15625 3.046875 -5.15625 C 3.492188 -5.15625 3.804688 -5.023438 3.984375 -4.765625 C 4.171875 -4.503906 4.265625 -4.128906 4.265625 -3.640625 L 2.8125 -3.640625 C 2.132812 -3.640625 1.59375 -3.472656 1.1875 -3.140625 C 0.789062 -2.804688 0.59375 -2.34375 0.59375 -1.75 C 0.59375 -1.175781 0.769531 -0.710938 1.125 -0.359375 C 1.488281 -0.015625 2.015625 0.15625 2.703125 0.15625 C 3.015625 0.15625 3.332031 0.0820312 3.65625 -0.0625 C 3.976562 -0.207031 4.253906 -0.378906 4.484375 -0.578125 L 4.640625 0 L 5.46875 0 L 5.46875 -4.125 C 5.46875 -4.507812 5.363281 -4.863281 5.15625 -5.1875 C 4.945312 -5.507812 4.648438 -5.765625 4.265625 -5.953125 C 3.890625 -6.140625 3.472656 -6.234375 3.015625 -6.234375 C 2.734375 -6.234375 2.375 -6.179688 1.9375 -6.078125 C 1.5 -5.972656 1.171875 -5.847656 0.953125 -5.703125 Z M 1.671875 -1.75 C 1.671875 -2.050781 1.769531 -2.304688 1.96875 -2.515625 C 2.164062 -2.722656 2.441406 -2.828125 2.796875 -2.828125 L 4.265625 -2.828125 L 4.265625 -1.609375 C 4.054688 -1.359375 3.8125 -1.160156 3.53125 -1.015625 C 3.257812 -0.867188 2.976562 -0.796875 2.6875 -0.796875 C 2.351562 -0.796875 2.097656 -0.890625 1.921875 -1.078125 C 1.753906 -1.265625 1.671875 -1.488281 1.671875 -1.75 Z M 1.671875 -1.75 "/></g></g></g><g fill="#000000" fill-opacity="1"><g transform="translate(119.037179, 265.278352)"><g><path d="M 1.109375 0 L 2.3125 0 L 2.3125 -5.09375 L 3.828125 -5.09375 L 3.453125 -6 L 2.3125 -6 L 2.3125 -6.671875 C 2.3125 -7.003906 2.378906 -7.265625 2.515625 -7.453125 C 2.660156 -7.640625 2.875 -7.734375 3.15625 -7.734375 C 3.3125 -7.734375 3.515625 -7.6875 3.765625 -7.59375 L 4.0625 -8.515625 C 3.945312 -8.597656 3.789062 -8.664062 3.59375 -8.71875 C 3.40625 -8.769531 3.222656 -8.796875 3.046875 -8.796875 C 2.441406 -8.796875 1.96875 -8.613281 1.625 -8.25 C 1.28125 -7.882812 1.109375 -7.398438 1.109375 -6.796875 L 1.109375 -6 L 0.1875 -6 L 0.203125 -5.09375 L 1.109375 -5.09375 Z M 1.109375 0 "/></g></g></g><g fill="#000000" fill-opacity="1"><g transform="translate(124.663262, 265.278352)"><g><path d="M 2.25 -7.796875 L 1.046875 -7.515625 L 1.046875 -6 L 0.1875 -6 L 0.203125 -5.09375 L 1.046875 -5.09375 L 1.046875 -1.6875 C 1.046875 -1.082031 1.21875 -0.613281 1.5625 -0.28125 C 1.914062 0.0507812 2.394531 0.21875 3 0.21875 C 3.164062 0.21875 3.34375 0.1875 3.53125 0.125 C 3.726562 0.0703125 3.890625 0.015625 4.015625 -0.046875 L 3.703125 -0.96875 C 3.460938 -0.875 3.269531 -0.828125 3.125 -0.828125 C 2.832031 -0.828125 2.613281 -0.921875 2.46875 -1.109375 C 2.320312 -1.296875 2.25 -1.550781 2.25 -1.875 L 2.25 -5.09375 L 3.734375 -5.09375 L 3.359375 -6 L 2.25 -6 Z M 2.25 -7.796875 "/></g></g></g><g fill="#000000" fill-opacity="1"><g transform="translate(130.502309, 265.278352)"><g/></g></g><g fill="#000000" fill-opacity="1"><g transform="translate(134.950819, 265.278352)"><g><path d="M 7.515625 0 L 5.59375 -6.796875 L 3.75 0 L 2.65625 0 L 0.125 -8.453125 L 1.3125 -8.625 L 3.21875 -1.609375 L 5.03125 -8.515625 L 6.203125 -8.515625 L 8.078125 -1.609375 L 9.890625 -8.515625 L 11.0625 -8.515625 L 8.609375 0 Z M 7.515625 0 "/></g></g></g><g fill="#000000" fill-opacity="1"><g transform="translate(147.704955, 265.278352)"><g><path d="M 5.9375 -3.09375 C 5.9375 -4.007812 5.710938 -4.757812 5.265625 -5.34375 C 4.816406 -5.9375 4.15625 -6.234375 3.28125 -6.234375 C 2.6875 -6.234375 2.171875 -6.097656 1.734375 -5.828125 C 1.296875 -5.566406 0.957031 -5.191406 0.71875 -4.703125 C 0.488281 -4.222656 0.375 -3.671875 0.375 -3.046875 C 0.375 -2.066406 0.65625 -1.285156 1.21875 -0.703125 C 1.789062 -0.128906 2.609375 0.15625 3.671875 0.15625 C 4.410156 0.15625 5.144531 -0.0664062 5.875 -0.515625 L 5.5 -1.390625 C 5.070312 -1.191406 4.738281 -1.050781 4.5 -0.96875 C 4.257812 -0.894531 3.984375 -0.859375 3.671875 -0.859375 C 3.015625 -0.859375 2.519531 -1.023438 2.1875 -1.359375 C 1.863281 -1.703125 1.675781 -2.171875 1.625 -2.765625 L 5.9375 -2.765625 Z M 1.65625 -3.578125 C 1.707031 -4.085938 1.867188 -4.488281 2.140625 -4.78125 C 2.421875 -5.070312 2.789062 -5.21875 3.25 -5.21875 C 4.101562 -5.21875 4.613281 -4.671875 4.78125 -3.578125 Z M 1.65625 -3.578125 "/></g></g></g><g fill="#000000" fill-opacity="1"><g transform="translate(155.585957, 265.278352)"><g><path d="M 1.296875 -4.75 C 1.910156 -5.019531 2.492188 -5.15625 3.046875 -5.15625 C 3.492188 -5.15625 3.804688 -5.023438 3.984375 -4.765625 C 4.171875 -4.503906 4.265625 -4.128906 4.265625 -3.640625 L 2.8125 -3.640625 C 2.132812 -3.640625 1.59375 -3.472656 1.1875 -3.140625 C 0.789062 -2.804688 0.59375 -2.34375 0.59375 -1.75 C 0.59375 -1.175781 0.769531 -0.710938 1.125 -0.359375 C 1.488281 -0.015625 2.015625 0.15625 2.703125 0.15625 C 3.015625 0.15625 3.332031 0.0820312 3.65625 -0.0625 C 3.976562 -0.207031 4.253906 -0.378906 4.484375 -0.578125 L 4.640625 0 L 5.46875 0 L 5.46875 -4.125 C 5.46875 -4.507812 5.363281 -4.863281 5.15625 -5.1875 C 4.945312 -5.507812 4.648438 -5.765625 4.265625 -5.953125 C 3.890625 -6.140625 3.472656 -6.234375 3.015625 -6.234375 C 2.734375 -6.234375 2.375 -6.179688 1.9375 -6.078125 C 1.5 -5.972656 1.171875 -5.847656 0.953125 -5.703125 Z M 1.671875 -1.75 C 1.671875 -2.050781 1.769531 -2.304688 1.96875 -2.515625 C 2.164062 -2.722656 2.441406 -2.828125 2.796875 -2.828125 L 4.265625 -2.828125 L 4.265625 -1.609375 C 4.054688 -1.359375 3.8125 -1.160156 3.53125 -1.015625 C 3.257812 -0.867188 2.976562 -0.796875 2.6875 -0.796875 C 2.351562 -0.796875 2.097656 -0.890625 1.921875 -1.078125 C 1.753906 -1.265625 1.671875 -1.488281 1.671875 -1.75 Z M 1.671875 -1.75 "/></g></g></g><g fill="#000000" fill-opacity="1"><g transform="translate(163.32916, 265.278352)"><g><path d="M 0.875 -8.703125 L 0.875 0 L 2.078125 0 L 2.078125 -8.84375 Z M 0.875 -8.703125 "/></g></g></g><g fill="#000000" fill-opacity="1"><g transform="translate(167.852832, 265.278352)"><g><path d="M 2.25 -7.796875 L 1.046875 -7.515625 L 1.046875 -6 L 0.1875 -6 L 0.203125 -5.09375 L 1.046875 -5.09375 L 1.046875 -1.6875 C 1.046875 -1.082031 1.21875 -0.613281 1.5625 -0.28125 C 1.914062 0.0507812 2.394531 0.21875 3 0.21875 C 3.164062 0.21875 3.34375 0.1875 3.53125 0.125 C 3.726562 0.0703125 3.890625 0.015625 4.015625 -0.046875 L 3.703125 -0.96875 C 3.460938 -0.875 3.269531 -0.828125 3.125 -0.828125 C 2.832031 -0.828125 2.613281 -0.921875 2.46875 -1.109375 C 2.320312 -1.296875 2.25 -1.550781 2.25 -1.875 L 2.25 -5.09375 L 3.734375 -5.09375 L 3.359375 -6 L 2.25 -6 Z M 2.25 -7.796875 "/></g></g></g><g fill="#000000" fill-opacity="1"><g transform="translate(173.691876, 265.278352)"><g><path d="M 4.25 -6.28125 C 4.90625 -6.28125 5.394531 -6.070312 5.71875 -5.65625 C 6.039062 -5.25 6.203125 -4.703125 6.203125 -4.015625 L 6.203125 0 L 5 0 L 5 -3.890625 C 5 -4.335938 4.925781 -4.675781 4.78125 -4.90625 C 4.632812 -5.132812 4.375 -5.25 4 -5.25 C 3.71875 -5.25 3.40625 -5.160156 3.0625 -4.984375 C 2.726562 -4.804688 2.398438 -4.570312 2.078125 -4.28125 L 2.078125 0 L 0.875 0 L 0.875 -8.703125 L 2.078125 -8.84375 L 2.078125 -5.40625 C 2.398438 -5.664062 2.75 -5.875 3.125 -6.03125 C 3.507812 -6.195312 3.882812 -6.28125 4.25 -6.28125 Z M 4.25 -6.28125 "/></g></g></g><g fill="#000000" fill-opacity="1"><g transform="translate(182.161665, 265.278352)"><g><path d="M 1.171875 -1.5 C 0.960938 -1.5 0.78125 -1.421875 0.625 -1.265625 C 0.476562 -1.117188 0.40625 -0.945312 0.40625 -0.75 C 0.40625 -0.5625 0.46875 -0.390625 0.59375 -0.234375 C 0.726562 -0.0859375 0.875 -0.0078125 1.03125 0 C 1 0.226562 0.921875 0.414062 0.796875 0.5625 C 0.671875 0.71875 0.488281 0.890625 0.25 1.078125 L 0.53125 1.640625 C 0.9375 1.429688 1.269531 1.109375 1.53125 0.671875 C 1.800781 0.242188 1.9375 -0.175781 1.9375 -0.59375 C 1.9375 -0.863281 1.863281 -1.082031 1.71875 -1.25 C 1.570312 -1.414062 1.390625 -1.5 1.171875 -1.5 Z M 1.171875 -1.5 "/></g></g></g><g fill="#000000" fill-opacity="1"><g transform="translate(186.046436, 265.278352)"><g/></g></g><g fill="#000000" fill-opacity="1"><g transform="translate(190.494943, 265.278352)"><g><path d="M 0.65625 -0.46875 C 0.820312 -0.3125 1.171875 -0.164062 1.703125 -0.03125 C 2.234375 0.09375 2.679688 0.15625 3.046875 0.15625 C 3.691406 0.15625 4.242188 0.0625 4.703125 -0.125 C 5.160156 -0.3125 5.507812 -0.578125 5.75 -0.921875 C 5.988281 -1.273438 6.109375 -1.675781 6.109375 -2.125 C 6.109375 -2.707031 5.929688 -3.179688 5.578125 -3.546875 C 5.222656 -3.921875 4.664062 -4.28125 3.90625 -4.625 C 3.34375 -4.882812 2.914062 -5.097656 2.625 -5.265625 C 2.332031 -5.429688 2.101562 -5.613281 1.9375 -5.8125 C 1.78125 -6.019531 1.703125 -6.265625 1.703125 -6.546875 C 1.703125 -6.898438 1.851562 -7.171875 2.15625 -7.359375 C 2.46875 -7.554688 2.878906 -7.65625 3.390625 -7.65625 C 3.742188 -7.65625 4.050781 -7.613281 4.3125 -7.53125 C 4.582031 -7.457031 4.863281 -7.347656 5.15625 -7.203125 L 5.546875 -8.15625 C 5.234375 -8.3125 4.878906 -8.441406 4.484375 -8.546875 C 4.085938 -8.660156 3.691406 -8.71875 3.296875 -8.71875 C 2.722656 -8.71875 2.222656 -8.617188 1.796875 -8.421875 C 1.378906 -8.234375 1.054688 -7.972656 0.828125 -7.640625 C 0.609375 -7.304688 0.5 -6.929688 0.5 -6.515625 C 0.5 -6.097656 0.578125 -5.738281 0.734375 -5.4375 C 0.898438 -5.144531 1.140625 -4.882812 1.453125 -4.65625 C 1.765625 -4.4375 2.179688 -4.210938 2.703125 -3.984375 C 3.242188 -3.753906 3.660156 -3.550781 3.953125 -3.375 C 4.253906 -3.207031 4.488281 -3.019531 4.65625 -2.8125 C 4.820312 -2.601562 4.90625 -2.367188 4.90625 -2.109375 C 4.90625 -1.734375 4.738281 -1.429688 4.40625 -1.203125 C 4.082031 -0.984375 3.625 -0.875 3.03125 -0.875 C 2.675781 -0.875 2.300781 -0.925781 1.90625 -1.03125 C 1.519531 -1.144531 1.191406 -1.273438 0.921875 -1.421875 Z M 0.65625 -0.46875 "/></g></g></g><g fill="#000000" fill-opacity="1"><g transform="translate(198.551332, 265.278352)"><g><path d="M 3.28125 -6.234375 C 3.894531 -6.234375 4.429688 -6.097656 4.890625 -5.828125 C 5.347656 -5.566406 5.695312 -5.191406 5.9375 -4.703125 C 6.175781 -4.210938 6.296875 -3.644531 6.296875 -3 C 6.296875 -2.375 6.171875 -1.820312 5.921875 -1.34375 C 5.671875 -0.863281 5.316406 -0.492188 4.859375 -0.234375 C 4.398438 0.0234375 3.867188 0.15625 3.265625 0.15625 C 3.097656 0.15625 2.90625 0.125 2.6875 0.0625 C 2.46875 0.0078125 2.25 -0.0703125 2.03125 -0.1875 L 2.03125 2.609375 L 0.828125 2.75 L 0.828125 -6.078125 L 1.5 -6.078125 L 1.765625 -5.703125 C 2.015625 -5.867188 2.28125 -6 2.5625 -6.09375 C 2.84375 -6.1875 3.082031 -6.234375 3.28125 -6.234375 Z M 3.28125 -0.859375 C 3.84375 -0.859375 4.28125 -1.054688 4.59375 -1.453125 C 4.914062 -1.859375 5.078125 -2.367188 5.078125 -2.984375 C 5.078125 -3.648438 4.921875 -4.1875 4.609375 -4.59375 C 4.296875 -5.007812 3.851562 -5.21875 3.28125 -5.21875 C 2.789062 -5.21875 2.375 -5.070312 2.03125 -4.78125 L 2.03125 -1.28125 C 2.382812 -1 2.800781 -0.859375 3.28125 -0.859375 Z M 3.28125 -0.859375 "/></g></g></g><g fill="#000000" fill-opacity="1"><g transform="translate(206.795632, 265.278352)"><g><path d="M 5.9375 -3.09375 C 5.9375 -4.007812 5.710938 -4.757812 5.265625 -5.34375 C 4.816406 -5.9375 4.15625 -6.234375 3.28125 -6.234375 C 2.6875 -6.234375 2.171875 -6.097656 1.734375 -5.828125 C 1.296875 -5.566406 0.957031 -5.191406 0.71875 -4.703125 C 0.488281 -4.222656 0.375 -3.671875 0.375 -3.046875 C 0.375 -2.066406 0.65625 -1.285156 1.21875 -0.703125 C 1.789062 -0.128906 2.609375 0.15625 3.671875 0.15625 C 4.410156 0.15625 5.144531 -0.0664062 5.875 -0.515625 L 5.5 -1.390625 C 5.070312 -1.191406 4.738281 -1.050781 4.5 -0.96875 C 4.257812 -0.894531 3.984375 -0.859375 3.671875 -0.859375 C 3.015625 -0.859375 2.519531 -1.023438 2.1875 -1.359375 C 1.863281 -1.703125 1.675781 -2.171875 1.625 -2.765625 L 5.9375 -2.765625 Z M 1.65625 -3.578125 C 1.707031 -4.085938 1.867188 -4.488281 2.140625 -4.78125 C 2.421875 -5.070312 2.789062 -5.21875 3.25 -5.21875 C 4.101562 -5.21875 4.613281 -4.671875 4.78125 -3.578125 Z M 1.65625 -3.578125 "/></g></g></g><g fill="#000000" fill-opacity="1"><g transform="translate(214.67664, 265.278352)"><g><path d="M 1.953125 -4.28125 C 2.273438 -4.570312 2.601562 -4.804688 2.9375 -4.984375 C 3.28125 -5.160156 3.59375 -5.25 3.875 -5.25 C 4.25 -5.25 4.507812 -5.132812 4.65625 -4.90625 C 4.800781 -4.675781 4.875 -4.335938 4.875 -3.890625 L 4.875 0 L 6.078125 0 L 6.078125 -4.015625 C 6.078125 -4.703125 5.914062 -5.25 5.59375 -5.65625 C 5.269531 -6.070312 4.78125 -6.28125 4.125 -6.28125 C 3.71875 -6.28125 3.3125 -6.1875 2.90625 -6 C 2.5 -5.8125 2.128906 -5.570312 1.796875 -5.28125 L 1.59375 -6.078125 L 0.75 -6.078125 L 0.75 0 L 1.953125 0 Z M 1.953125 -4.28125 "/></g></g></g><g fill="#000000" fill-opacity="1"><g transform="translate(223.021156, 265.278352)"><g><path d="M 5.9375 0 L 5.25 0 L 5.015625 -0.46875 C 4.765625 -0.257812 4.484375 -0.101562 4.171875 0 C 3.867188 0.101562 3.609375 0.15625 3.390625 0.15625 C 2.773438 0.15625 2.238281 0.0234375 1.78125 -0.234375 C 1.332031 -0.503906 0.984375 -0.882812 0.734375 -1.375 C 0.492188 -1.863281 0.375 -2.429688 0.375 -3.078125 C 0.375 -3.703125 0.5 -4.253906 0.75 -4.734375 C 1 -5.210938 1.351562 -5.582031 1.8125 -5.84375 C 2.269531 -6.101562 2.800781 -6.234375 3.40625 -6.234375 C 3.582031 -6.234375 3.789062 -6.203125 4.03125 -6.140625 C 4.269531 -6.078125 4.5 -5.984375 4.71875 -5.859375 L 4.71875 -8.703125 L 5.9375 -8.828125 Z M 1.609375 -3.09375 C 1.609375 -2.425781 1.765625 -1.882812 2.078125 -1.46875 C 2.390625 -1.0625 2.828125 -0.859375 3.390625 -0.859375 C 3.671875 -0.859375 3.914062 -0.898438 4.125 -0.984375 C 4.332031 -1.066406 4.53125 -1.195312 4.71875 -1.375 L 4.71875 -4.734375 C 4.53125 -4.898438 4.328125 -5.019531 4.109375 -5.09375 C 3.898438 -5.175781 3.660156 -5.21875 3.390625 -5.21875 C 2.835938 -5.21875 2.398438 -5.015625 2.078125 -4.609375 C 1.765625 -4.210938 1.609375 -3.707031 1.609375 -3.09375 Z M 1.609375 -3.09375 "/></g></g></g><g fill="#000000" fill-opacity="1"><g transform="translate(231.403254, 265.278352)"><g/></g></g><g fill="#000000" fill-opacity="1"><g transform="translate(235.851767, 265.278352)"><g><path d="M 7.515625 0 L 5.59375 -6.796875 L 3.75 0 L 2.65625 0 L 0.125 -8.453125 L 1.3125 -8.625 L 3.21875 -1.609375 L 5.03125 -8.515625 L 6.203125 -8.515625 L 8.078125 -1.609375 L 9.890625 -8.515625 L 11.0625 -8.515625 L 8.609375 0 Z M 7.515625 0 "/></g></g></g><g fill="#000000" fill-opacity="1"><g transform="translate(248.605909, 265.278352)"><g><path d="M 1.34375 -7.171875 C 1.550781 -7.171875 1.726562 -7.242188 1.875 -7.390625 C 2.03125 -7.535156 2.109375 -7.710938 2.109375 -7.921875 C 2.109375 -8.128906 2.03125 -8.304688 1.875 -8.453125 C 1.726562 -8.597656 1.550781 -8.671875 1.34375 -8.671875 C 1.132812 -8.671875 0.957031 -8.597656 0.8125 -8.453125 C 0.664062 -8.304688 0.59375 -8.128906 0.59375 -7.921875 C 0.59375 -7.710938 0.664062 -7.535156 0.8125 -7.390625 C 0.957031 -7.242188 1.132812 -7.171875 1.34375 -7.171875 Z M 0.75 -6.078125 L 0.75 0 L 1.96875 0 L 1.96875 -6.078125 Z M 0.75 -6.078125 "/></g></g></g><g fill="#000000" fill-opacity="1"><g transform="translate(252.891561, 265.278352)"><g><path d="M 0.421875 -0.390625 C 0.660156 -0.222656 0.984375 -0.09375 1.390625 0 C 1.796875 0.101562 2.144531 0.15625 2.4375 0.15625 C 3.226562 0.15625 3.835938 0 4.265625 -0.3125 C 4.691406 -0.632812 4.90625 -1.082031 4.90625 -1.65625 C 4.90625 -2.46875 4.21875 -3.125 2.84375 -3.625 C 2.445312 -3.757812 2.140625 -3.894531 1.921875 -4.03125 C 1.710938 -4.175781 1.601562 -4.332031 1.59375 -4.5 C 1.59375 -4.71875 1.691406 -4.898438 1.890625 -5.046875 C 2.097656 -5.191406 2.363281 -5.265625 2.6875 -5.265625 C 2.976562 -5.265625 3.242188 -5.226562 3.484375 -5.15625 C 3.722656 -5.082031 3.988281 -4.976562 4.28125 -4.84375 L 4.65625 -5.671875 C 4.414062 -5.835938 4.101562 -5.972656 3.71875 -6.078125 C 3.332031 -6.179688 2.992188 -6.234375 2.703125 -6.234375 C 1.992188 -6.234375 1.429688 -6.078125 1.015625 -5.765625 C 0.609375 -5.453125 0.40625 -5.019531 0.40625 -4.46875 C 0.40625 -3.6875 1.066406 -3.078125 2.390625 -2.640625 C 3.296875 -2.359375 3.75 -2.007812 3.75 -1.59375 C 3.75 -1.351562 3.628906 -1.160156 3.390625 -1.015625 C 3.148438 -0.878906 2.832031 -0.8125 2.4375 -0.8125 C 1.914062 -0.8125 1.367188 -0.953125 0.796875 -1.234375 Z M 0.421875 -0.390625 "/></g></g></g><g fill="#000000" fill-opacity="1"><g transform="translate(259.732793, 265.278352)"><g><path d="M 5.9375 -3.09375 C 5.9375 -4.007812 5.710938 -4.757812 5.265625 -5.34375 C 4.816406 -5.9375 4.15625 -6.234375 3.28125 -6.234375 C 2.6875 -6.234375 2.171875 -6.097656 1.734375 -5.828125 C 1.296875 -5.566406 0.957031 -5.191406 0.71875 -4.703125 C 0.488281 -4.222656 0.375 -3.671875 0.375 -3.046875 C 0.375 -2.066406 0.65625 -1.285156 1.21875 -0.703125 C 1.789062 -0.128906 2.609375 0.15625 3.671875 0.15625 C 4.410156 0.15625 5.144531 -0.0664062 5.875 -0.515625 L 5.5 -1.390625 C 5.070312 -1.191406 4.738281 -1.050781 4.5 -0.96875 C 4.257812 -0.894531 3.984375 -0.859375 3.671875 -0.859375 C 3.015625 -0.859375 2.519531 -1.023438 2.1875 -1.359375 C 1.863281 -1.703125 1.675781 -2.171875 1.625 -2.765625 L 5.9375 -2.765625 Z M 1.65625 -3.578125 C 1.707031 -4.085938 1.867188 -4.488281 2.140625 -4.78125 C 2.421875 -5.070312 2.789062 -5.21875 3.25 -5.21875 C 4.101562 -5.21875 4.613281 -4.671875 4.78125 -3.578125 Z M 1.65625 -3.578125 "/></g></g></g><g fill="#000000" fill-opacity="1"><g transform="translate(267.613801, 265.278352)"><g><path d="M 0.875 -8.703125 L 0.875 0 L 2.078125 0 L 2.078125 -8.84375 Z M 0.875 -8.703125 "/></g></g></g><g fill="#000000" fill-opacity="1"><g transform="translate(272.137478, 265.278352)"><g><path d="M 2 0.765625 C 1.90625 1.015625 1.75 1.210938 1.53125 1.359375 C 1.3125 1.503906 1 1.664062 0.59375 1.84375 L 1 2.765625 C 1.488281 2.660156 1.921875 2.457031 2.296875 2.15625 C 2.679688 1.863281 2.953125 1.515625 3.109375 1.109375 L 5.796875 -6.078125 L 4.5625 -6.078125 L 2.953125 -1.71875 L 1.265625 -6.296875 L 0.125 -5.875 L 2.34375 -0.15625 Z M 2 0.765625 "/></g></g></g></svg>