<svg version="1.1" id="Layer_1" xmlns="http://www.w3.org/2000/svg" xmlns:xlink="http://www.w3.org/1999/xlink" x="0px" y="0px"
	 width="100%" viewBox="0 0 1024 1024" enable-background="new 0 0 1024 1024" xml:space="preserve">
<path fill="#FFFFFF" opacity="1.000000" stroke="none" 
	d="
M569.000000,1025.000000 
	C379.333344,1025.000000 190.166672,1025.000000 1.000000,1025.000000 
	C1.000000,683.666687 1.000000,342.333344 1.000000,1.000000 
	C342.333344,1.000000 683.666687,1.000000 1025.000000,1.000000 
	C1025.000000,342.333344 1025.000000,683.666687 1025.000000,1025.000000 
	C873.166687,1025.000000 721.333313,1025.000000 569.000000,1025.000000 
M359.500122,222.353149 
	C297.348602,222.353165 235.197052,222.345001 173.045517,222.361099 
	C162.505341,222.363831 158.116455,226.753586 158.111862,237.207092 
	C158.099197,266.033478 158.106308,294.859833 158.107742,323.686218 
	C158.108353,335.861847 162.113129,339.912170 174.158661,339.912201 
	C399.937500,339.913055 625.716370,339.915344 851.495178,339.881714 
	C854.131042,339.881317 856.894653,339.837280 859.379395,339.087280 
	C868.075378,336.462341 870.622803,325.883911 864.227295,319.447510 
	C863.063232,318.276031 861.670776,317.317078 860.322449,316.345001 
	C775.382629,255.106155 690.425110,193.891785 605.521912,132.602341 
	C600.965088,129.312897 596.409912,127.663170 591.173706,130.351227 
	C585.921631,133.047440 584.631042,137.772339 584.656311,143.355972 
	C584.766479,167.682938 584.703369,192.010681 584.703247,216.338150 
	C584.703247,218.137436 584.703308,219.936737 584.703308,222.353241 
	C509.697205,222.353241 435.098663,222.353241 359.500122,222.353149 
M421.500000,686.087158 
	C339.186798,686.087219 256.873627,686.080383 174.560440,686.118103 
	C171.923935,686.119324 169.161880,686.155701 166.673965,686.898193 
	C157.958344,689.499146 155.357941,700.059937 161.738174,706.510193 
	C163.014343,707.800293 164.562958,708.835144 166.045914,709.904602 
	C250.711212,770.955627 335.394348,831.981934 420.022888,893.083801 
	C424.670258,896.439209 429.289124,898.474976 434.779602,895.675537 
	C440.275238,892.873413 441.375305,887.923706 441.347229,882.198364 
	C441.228027,857.871521 441.296722,833.543640 441.296783,809.216187 
	C441.296783,807.477722 441.296753,805.739197 441.296753,803.646912 
	C444.213074,803.646912 446.355560,803.646912 448.498016,803.646912 
	C583.132202,803.646912 717.766357,803.648804 852.400574,803.643311 
	C863.645996,803.642883 867.887634,799.442688 867.890320,788.348145 
	C867.897278,759.688416 867.893677,731.028625 867.892395,702.368896 
	C867.891785,689.970764 863.956787,686.087463 851.396545,686.087402 
	C708.431030,686.087036 565.465515,686.087158 421.500000,686.087158 
M338.499878,651.668884 
	C467.660492,651.668762 596.821106,651.670471 725.981689,651.665283 
	C737.050293,651.664795 741.218201,647.590088 741.219238,636.752930 
	C741.226685,554.090027 741.228394,471.427063 741.216248,388.764130 
	C741.214722,378.819366 736.837402,374.345093 726.998657,374.343903 
	C584.338440,374.326904 441.678253,374.327026 299.018036,374.343658 
	C289.167664,374.344818 284.785400,378.811127 284.783905,388.747406 
	C284.771484,471.576996 284.771393,554.406555 284.783936,637.236145 
	C284.785492,647.398315 289.136169,651.641785 299.501556,651.662231 
	C312.167633,651.687195 324.833740,651.668579 338.499878,651.668884 
z"/>
<path fill="#043869" opacity="1.000000" stroke="none" 
	d="
M360.000122,222.353195 
	C435.098663,222.353241 509.697205,222.353241 584.703308,222.353241 
	C584.703308,219.936737 584.703247,218.137436 584.703247,216.338150 
	C584.703369,192.010681 584.766479,167.682938 584.656311,143.355972 
	C584.631042,137.772339 585.921631,133.047440 591.173706,130.351227 
	C596.409912,127.663170 600.965088,129.312897 605.521912,132.602341 
	C690.425110,193.891785 775.382629,255.106155 860.322449,316.345001 
	C861.670776,317.317078 863.063232,318.276031 864.227295,319.447510 
	C870.622803,325.883911 868.075378,336.462341 859.379395,339.087280 
	C856.894653,339.837280 854.131042,339.881317 851.495178,339.881714 
	C625.716370,339.915344 399.937500,339.913055 174.158661,339.912201 
	C162.113129,339.912170 158.108353,335.861847 158.107742,323.686218 
	C158.106308,294.859833 158.099197,266.033478 158.111862,237.207092 
	C158.116455,226.753586 162.505341,222.363831 173.045517,222.361099 
	C235.197052,222.345001 297.348602,222.353165 360.000122,222.353195 
M589.466187,246.106964 
	C453.739380,246.106964 318.012604,246.106964 182.312607,246.106964 
	C182.312607,269.781403 182.312607,292.699585 182.312607,315.665771 
	C394.247131,315.665771 605.887146,315.665771 818.758240,315.665771 
	C748.296509,264.872040 678.797424,214.772278 608.328247,163.973160 
	C608.328247,175.792633 608.328796,186.235077 608.328125,196.677536 
	C608.327271,208.841812 608.393982,221.006592 608.301025,233.170166 
	C608.234009,241.934982 604.070496,246.023849 595.449097,246.102875 
	C593.782898,246.118149 592.116394,246.106323 589.466187,246.106964 
z"/>
<path fill="#043869" opacity="1.000000" stroke="none" 
	d="
M422.000000,686.087158 
	C565.465515,686.087158 708.431030,686.087036 851.396545,686.087402 
	C863.956787,686.087463 867.891785,689.970764 867.892395,702.368896 
	C867.893677,731.028625 867.897278,759.688416 867.890320,788.348145 
	C867.887634,799.442688 863.645996,803.642883 852.400574,803.643311 
	C717.766357,803.648804 583.132202,803.646912 448.498016,803.646912 
	C446.355560,803.646912 444.213074,803.646912 441.296753,803.646912 
	C441.296753,805.739197 441.296783,807.477722 441.296783,809.216187 
	C441.296722,833.543640 441.228027,857.871521 441.347229,882.198364 
	C441.375305,887.923706 440.275238,892.873413 434.779602,895.675537 
	C429.289124,898.474976 424.670258,896.439209 420.022888,893.083801 
	C335.394348,831.981934 250.711212,770.955627 166.045914,709.904602 
	C164.562958,708.835144 163.014343,707.800293 161.738174,706.510193 
	C155.357941,700.059937 157.958344,689.499146 166.673965,686.898193 
	C169.161880,686.155701 171.923935,686.119324 174.560440,686.118103 
	C256.873627,686.080383 339.186798,686.087219 422.000000,686.087158 
M593.500000,710.013977 
	C465.152313,710.013977 336.804626,710.013977 208.456924,710.013977 
	C208.374954,710.353821 208.292984,710.693726 208.210999,711.033569 
	C277.711060,761.133606 347.211151,811.233582 417.671844,862.026123 
	C417.671844,859.013611 417.671814,857.397888 417.671814,855.782166 
	C417.671936,835.619690 417.666016,815.457214 417.674469,795.294739 
	C417.679535,783.233521 421.025177,779.894287 433.084534,779.894165 
	C567.889832,779.892639 702.695129,779.893188 837.500427,779.893127 
	C839.586060,779.893127 841.671631,779.893066 843.671509,779.893066 
	C843.671509,756.187012 843.671509,733.268372 843.671509,710.013977 
	C760.407898,710.013977 677.453979,710.013977 593.500000,710.013977 
z"/>
<path fill="#04386A" opacity="1.000000" stroke="none" 
	d="
M337.999878,651.668823 
	C324.833740,651.668579 312.167633,651.687195 299.501556,651.662231 
	C289.136169,651.641785 284.785492,647.398315 284.783936,637.236145 
	C284.771393,554.406555 284.771484,471.576996 284.783905,388.747406 
	C284.785400,378.811127 289.167664,374.344818 299.018036,374.343658 
	C441.678253,374.327026 584.338440,374.326904 726.998657,374.343903 
	C736.837402,374.345093 741.214722,378.819366 741.216248,388.764130 
	C741.228394,471.427063 741.226685,554.090027 741.219238,636.752930 
	C741.218201,647.590088 737.050293,651.664795 725.981689,651.665283 
	C596.821106,651.670471 467.660492,651.668762 337.999878,651.668823 
M308.217926,496.500000 
	C308.217926,538.154785 308.216980,579.809631 308.218842,621.464417 
	C308.219147,627.984680 308.225006,627.988708 314.676086,627.988770 
	C446.972015,627.989563 579.267944,627.989258 711.563904,627.989258 
	C713.364014,627.989258 715.164124,627.989319 717.371826,627.989319 
	C717.371826,551.176025 717.371826,474.832001 717.371826,398.010742 
	C715.337769,398.010742 713.705688,398.010773 712.073669,398.010773 
	C579.277893,398.010773 446.482056,398.033722 313.686371,397.911530 
	C309.216095,397.907440 308.098297,399.175415 308.123535,403.526550 
	C308.301453,434.183502 308.218079,464.842010 308.217926,496.500000 
z"/>
<path fill="#F9C23D" opacity="1.000000" stroke="none" 
	d="
M589.958130,246.106964 
	C592.116394,246.106323 593.782898,246.118149 595.449097,246.102875 
	C604.070496,246.023849 608.234009,241.934982 608.301025,233.170166 
	C608.393982,221.006592 608.327271,208.841812 608.328125,196.677536 
	C608.328796,186.235077 608.328247,175.792633 608.328247,163.973160 
	C678.797424,214.772278 748.296509,264.872040 818.758240,315.665771 
	C605.887146,315.665771 394.247131,315.665771 182.312607,315.665771 
	C182.312607,292.699585 182.312607,269.781403 182.312607,246.106964 
	C318.012604,246.106964 453.739380,246.106964 589.958130,246.106964 
z"/>
<path fill="#F9C23D" opacity="1.000000" stroke="none" 
	d="
M594.000000,710.013977 
	C677.453979,710.013977 760.407898,710.013977 843.671509,710.013977 
	C843.671509,733.268372 843.671509,756.187012 843.671509,779.893066 
	C841.671631,779.893066 839.586060,779.893127 837.500427,779.893127 
	C702.695129,779.893188 567.889832,779.892639 433.084534,779.894165 
	C421.025177,779.894287 417.679535,783.233521 417.674469,795.294739 
	C417.666016,815.457214 417.671936,835.619690 417.671814,855.782166 
	C417.671814,857.397888 417.671844,859.013611 417.671844,862.026123 
	C347.211151,811.233582 277.711060,761.133606 208.210999,711.033569 
	C208.292984,710.693726 208.374954,710.353821 208.456924,710.013977 
	C336.804626,710.013977 465.152313,710.013977 594.000000,710.013977 
z"/>
<path fill="#80C9C3" opacity="1.000000" stroke="none" 
	d="
M308.218048,496.000000 
	C308.218079,464.842010 308.301453,434.183502 308.123535,403.526550 
	C308.098297,399.175415 309.216095,397.907440 313.686371,397.911530 
	C446.482056,398.033722 579.277893,398.010773 712.073669,398.010773 
	C713.705688,398.010773 715.337769,398.010742 717.371826,398.010742 
	C717.371826,474.832001 717.371826,551.176025 717.371826,627.989319 
	C715.164124,627.989319 713.364014,627.989258 711.563904,627.989258 
	C579.267944,627.989258 446.972015,627.989563 314.676086,627.988770 
	C308.225006,627.988708 308.219147,627.984680 308.218842,621.464417 
	C308.216980,579.809631 308.217926,538.154785 308.218048,496.000000 
M558.500000,611.895874 
	C583.994995,611.895813 609.489929,611.906982 634.984924,611.889221 
	C642.954651,611.883667 658.019775,599.902710 659.792969,592.172302 
	C660.012634,591.214966 659.944153,590.187561 659.976196,589.191589 
	C660.343506,577.760254 665.873413,572.574219 677.226929,571.609558 
	C681.025024,571.286804 684.914795,569.095276 688.232849,566.941650 
	C691.244568,564.986938 693.409180,561.775696 696.176331,559.383362 
	C699.867004,556.192566 701.236572,552.354614 701.196350,547.493591 
	C701.033813,527.832275 701.242126,508.167969 701.099792,488.506348 
	C700.951660,468.037628 703.358704,474.271240 689.088989,459.605347 
	C685.606628,456.026245 681.650940,454.344696 676.731506,454.155273 
	C665.713440,453.731018 660.574463,448.011749 659.811157,436.804657 
	C659.594910,433.630310 657.802490,430.276001 655.911682,427.580322 
	C653.840454,424.627350 650.657715,422.482178 648.249023,419.731323 
	C644.542725,415.498444 639.899597,414.079071 634.466980,414.081329 
	C553.316833,414.114807 472.166656,414.100433 391.016479,414.110535 
	C383.047516,414.111511 367.982208,426.095917 366.207336,433.826294 
	C365.987518,434.783661 366.055511,435.810974 366.023560,436.806946 
	C365.656860,448.242432 360.130676,453.425507 348.773682,454.390442 
	C344.975586,454.713135 341.085693,456.904388 337.767639,459.057953 
	C334.755920,461.012695 332.591614,464.224243 329.824158,466.616119 
	C326.132507,469.806763 324.764954,473.645966 324.805023,478.505951 
	C324.967010,498.167267 324.760345,517.831543 324.901215,537.493164 
	C325.047943,557.971863 322.653717,551.737488 336.912659,566.395142 
	C340.393250,569.973022 344.349792,571.656860 349.270905,571.845337 
	C360.288452,572.267029 365.426086,577.987183 366.189056,589.195618 
	C366.405090,592.369202 368.257355,595.666870 370.085358,598.426636 
	C371.796875,601.010559 374.664551,602.795715 376.680267,605.217957 
	C380.992523,610.399902 386.458008,611.980103 393.033569,611.965393 
	C447.855499,611.842773 502.677795,611.895752 558.500000,611.895874 
z"/>
<path fill="#023769" opacity="1.000000" stroke="none" 
	d="
M558.000000,611.895813 
	C502.677795,611.895752 447.855499,611.842773 393.033569,611.965393 
	C386.458008,611.980103 380.992523,610.399902 376.680267,605.217957 
	C374.664551,602.795715 371.796875,601.010559 370.085358,598.426636 
	C368.257355,595.666870 366.405090,592.369202 366.189056,589.195618 
	C365.426086,577.987183 360.288452,572.267029 349.270905,571.845337 
	C344.349792,571.656860 340.393250,569.973022 336.912659,566.395142 
	C322.653717,551.737488 325.047943,557.971863 324.901215,537.493164 
	C324.760345,517.831543 324.967010,498.167267 324.805023,478.505951 
	C324.764954,473.645966 326.132507,469.806763 329.824158,466.616119 
	C332.591614,464.224243 334.755920,461.012695 337.767639,459.057953 
	C341.085693,456.904388 344.975586,454.713135 348.773682,454.390442 
	C360.130676,453.425507 365.656860,448.242432 366.023560,436.806946 
	C366.055511,435.810974 365.987518,434.783661 366.207336,433.826294 
	C367.982208,426.095917 383.047516,414.111511 391.016479,414.110535 
	C472.166656,414.100433 553.316833,414.114807 634.466980,414.081329 
	C639.899597,414.079071 644.542725,415.498444 648.249023,419.731323 
	C650.657715,422.482178 653.840454,424.627350 655.911682,427.580322 
	C657.802490,430.276001 659.594910,433.630310 659.811157,436.804657 
	C660.574463,448.011749 665.713440,453.731018 676.731506,454.155273 
	C681.650940,454.344696 685.606628,456.026245 689.088989,459.605347 
	C703.358704,474.271240 700.951660,468.037628 701.099792,488.506348 
	C701.242126,508.167969 701.033813,527.832275 701.196350,547.493591 
	C701.236572,552.354614 699.867004,556.192566 696.176331,559.383362 
	C693.409180,561.775696 691.244568,564.986938 688.232849,566.941650 
	C684.914795,569.095276 681.025024,571.286804 677.226929,571.609558 
	C665.873413,572.574219 660.343506,577.760254 659.976196,589.191589 
	C659.944153,590.187561 660.012634,591.214966 659.792969,592.172302 
	C658.019775,599.902710 642.954651,611.883667 634.984924,611.889221 
	C609.489929,611.906982 583.994995,611.895813 558.000000,611.895813 
M409.502228,588.000244 
	C482.667633,588.000244 555.833008,588.001526 628.998413,587.997803 
	C634.853027,587.997498 636.230225,586.657654 637.033875,581.091797 
	C638.509338,570.872864 642.215393,561.453674 651.243958,555.892090 
	C656.861511,552.431702 663.590149,550.533875 670.043579,548.737549 
	C676.844971,546.844421 677.943909,546.089722 677.944580,539.127258 
	C677.946289,522.127563 677.945251,505.127838 677.945129,488.128143 
	C677.945068,479.383575 677.114014,478.433289 668.291748,477.087250 
	C650.687927,474.401459 638.836487,462.222839 637.058716,444.661469 
	C636.581787,439.950500 634.458740,437.962677 629.753357,437.965576 
	C551.921387,438.013550 474.089386,438.013397 396.257446,437.965973 
	C391.561340,437.963135 389.509155,439.954620 388.919312,444.646790 
	C387.364594,457.014618 382.005005,467.274841 370.361969,472.903442 
	C365.676270,475.168640 360.367188,476.243500 355.252747,477.496704 
	C349.325073,478.949158 348.061096,480.214600 348.059021,486.123688 
	C348.052887,503.623383 348.056427,521.123047 348.057007,538.622742 
	C348.057251,546.210693 349.020172,547.363831 356.479553,548.719055 
	C376.686829,552.390076 385.956726,562.060608 389.067444,582.584961 
	C389.564270,585.863342 391.356171,588.013184 395.003845,588.002747 
	C399.503723,587.989868 404.003693,588.000000 409.502228,588.000244 
z"/>
<path fill="#DFE0E0" opacity="1.000000" stroke="none" 
	d="
M409.002930,588.000244 
	C404.003693,588.000000 399.503723,587.989868 395.003845,588.002747 
	C391.356171,588.013184 389.564270,585.863342 389.067444,582.584961 
	C385.956726,562.060608 376.686829,552.390076 356.479553,548.719055 
	C349.020172,547.363831 348.057251,546.210693 348.057007,538.622742 
	C348.056427,521.123047 348.052887,503.623383 348.059021,486.123688 
	C348.061096,480.214600 349.325073,478.949158 355.252747,477.496704 
	C360.367188,476.243500 365.676270,475.168640 370.361969,472.903442 
	C382.005005,467.274841 387.364594,457.014618 388.919312,444.646790 
	C389.509155,439.954620 391.561340,437.963135 396.257446,437.965973 
	C474.089386,438.013397 551.921387,438.013550 629.753357,437.965576 
	C634.458740,437.962677 636.581787,439.950500 637.058716,444.661469 
	C638.836487,462.222839 650.687927,474.401459 668.291748,477.087250 
	C677.114014,478.433289 677.945068,479.383575 677.945129,488.128143 
	C677.945251,505.127838 677.946289,522.127563 677.944580,539.127258 
	C677.943909,546.089722 676.844971,546.844421 670.043579,548.737549 
	C663.590149,550.533875 656.861511,552.431702 651.243958,555.892090 
	C642.215393,561.453674 638.509338,570.872864 637.033875,581.091797 
	C636.230225,586.657654 634.853027,587.997498 628.998413,587.997803 
	C555.833008,588.001526 482.667633,588.000244 409.002930,588.000244 
M532.014648,451.267609 
	C526.294434,450.406036 520.598389,449.041595 514.849976,448.764709 
	C478.113739,446.995239 443.075653,478.756165 449.237701,522.771912 
	C454.367340,559.413086 489.289246,583.160400 525.851746,576.119751 
	C553.129150,570.867126 574.063843,547.915649 576.970825,520.815857 
	C580.941040,483.804474 556.586182,458.805023 532.014648,451.267609 
z"/>
<path fill="#023769" opacity="1.000000" stroke="none" 
	d="
M532.369202,451.460327 
	C556.586182,458.805023 580.941040,483.804474 576.970825,520.815857 
	C574.063843,547.915649 553.129150,570.867126 525.851746,576.119751 
	C489.289246,583.160400 454.367340,559.413086 449.237701,522.771912 
	C443.075653,478.756165 478.113739,446.995239 514.849976,448.764709 
	C520.598389,449.041595 526.294434,450.406036 532.369202,451.460327 
M485.383331,482.862305 
	C474.463531,493.462616 470.032593,506.093079 472.930450,521.251038 
	C476.700409,540.970459 495.611023,555.390625 516.191345,553.982422 
	C535.989685,552.627747 553.381836,535.102661 553.949341,515.478760 
	C554.463501,497.696381 546.776001,484.086334 530.843201,476.269440 
	C514.877991,468.436615 499.613190,470.966766 485.383331,482.862305 
z"/>
<path fill="#80CAC4" opacity="1.000000" stroke="none" 
	d="
M485.643127,482.616333 
	C499.613190,470.966766 514.877991,468.436615 530.843201,476.269440 
	C546.776001,484.086334 554.463501,497.696381 553.949341,515.478760 
	C553.381836,535.102661 535.989685,552.627747 516.191345,553.982422 
	C495.611023,555.390625 476.700409,540.970459 472.930450,521.251038 
	C470.032593,506.093079 474.463531,493.462616 485.643127,482.616333 
z"/>
</svg>